squats_1_grf
version=1
nRows=18
nColumns=19
inDegrees=no
endheader
time	ground_force_left_vx	ground_force_left_vy	ground_force_left_vz	ground_force_left_px	ground_force_left_py	ground_force_left_pz	ground_force_left_mx	ground_force_left_my	ground_force_left_mz	ground_force_right_vx	ground_force_right_vy	ground_force_right_vz	ground_force_right_px	ground_force_right_py	ground_force_right_pz	ground_force_right_mx	ground_force_right_my	ground_force_right_mz
     21.65500000	     -6.23961891	    263.98961166	     36.69876020	     -2.26683675	      0.01009891	      2.25117632	      0.00503003	     -2.56540838	      0.00641510	     -0.14523932	    240.48631240	    -31.24364260	     -2.26844117	      0.01042725	      2.72012703	     -0.00191570	      1.55221071	      0.00463821
     21.65600000	     -6.04637271	    263.68525879	     36.67335304	     -2.26724951	      0.01009832	      2.25126502	      0.00502895	     -2.56485464	      0.00641372	     -0.01099804	    240.39171898	    -31.20863795	     -2.26875303	      0.01042700	      2.72008035	     -0.00190679	      1.54499008	      0.00461663
     21.65700000	     -5.84974744	    263.36310245	     36.64551419	     -2.26767895	      0.01009771	      2.25135633	      0.00502745	     -2.56409097	      0.00641181	      0.12152041	    240.30133883	    -31.17667871	     -2.26907676	      0.01042675	      2.72003170	     -0.00189747	      1.53743659	      0.00459406
     21.65800000	     -5.65062467	    263.02336329	     36.61513232	     -2.26812406	      0.01009707	      2.25144991	      0.00502551	     -2.56309924	      0.00640933	      0.25144244	    240.21610725	    -31.14818631	     -2.26941160	      0.01042649	      2.71998121	     -0.00188774	      1.52955432	      0.00457051
     21.65900000	     -5.44989535	    262.66633011	     36.58209901	     -2.26858378	      0.01009641	      2.25154543	      0.00502308	     -2.56186208	      0.00640624	      0.37793238	    240.13691684	    -31.12355117	     -2.26975677	      0.01042622	      2.71992898	     -0.00187761	      1.52134830	      0.00454599
     21.66000000	     -5.24844789	    262.29235499	     36.54630953	     -2.26905698	      0.01009572	      2.25164253	      0.00502014	     -2.56036318	      0.00640249	      0.50020737	    240.06460221	    -31.10312567	     -2.27011149	      0.01042594	      2.71987517	     -0.00186709	      1.51282457	      0.00452052
     21.66100000	     -5.04715616	    261.90184759	     36.50766364	     -2.26954252	      0.01009502	      2.25174091	      0.00501666	     -2.55858744	      0.00639805	      0.61755174	    239.99992531	    -31.08721755	     -2.27047496	      0.01042566	      2.71981989	     -0.00185619	      1.50399018	      0.00449412
     21.66200000	     -4.84686760	    261.49526853	     36.46606642	     -2.27003920	      0.01009429	      2.25184022	      0.00501261	     -2.55652129	      0.00639288	      0.72933086	    239.94356168	    -31.07608390	     -2.27084639	      0.01042537	      2.71976329	     -0.00184491	      1.49485315	      0.00446682
     21.66300000	     -4.64839160	    261.07312207	     36.42142907	     -2.27054583	      0.01009355	      2.25194015	      0.00500796	     -2.55415283	      0.00638696	      0.83500390	    239.89608793	    -31.06992586	     -2.27122501	      0.01042507	      2.71970550	     -0.00183328	      1.48542253	      0.00443864
     21.66400000	     -4.45248847	    260.63594786	     36.37366974	     -2.27106121	      0.01009279	      2.25204043	      0.00500271	     -2.55147209	      0.00638026	      0.93413546	    239.85797054	    -31.06888413	     -2.27161006	      0.01042477	      2.71964666	     -0.00182129	      1.47570833	      0.00440961
     21.66500000	     -4.25985908	    260.18431208	     36.32271428	     -2.27158416	      0.01009201	      2.25214076	      0.00499682	     -2.54847116	      0.00637275	      1.02640567	    239.82955631	    -31.07303546	     -2.27200083	      0.01042447	      2.71958688	     -0.00180896	      1.46572153	      0.00437977
     21.66600000	     -4.07113535	    259.71879782	     36.26849693	     -2.27211353	      0.01009123	      2.25224089	      0.00499030	     -2.54514440	      0.00636443	      1.11161850	    239.81106465	    -31.08239006	     -2.27239663	      0.01042416	      2.71952630	     -0.00179631	      1.45547413	      0.00434915
     21.66700000	     -3.88687190	    259.23999481	     36.21096087	     -2.27264819	      0.01009043	      2.25234061	      0.00498313	     -2.54148854	      0.00635529	      1.18970817	    239.80258176	    -31.09689012	     -2.27279680	      0.01042385	      2.71946504	     -0.00178336	      1.44497909	      0.00431779
     21.66800000	     -3.70753873	    258.74848868	     36.15005868	     -2.27318707	      0.01008962	      2.25243969	      0.00497532	     -2.53750281	      0.00634532	      1.26074335	    239.80405703	    -31.11640940	     -2.27320075	      0.01042354	      2.71940319	     -0.00177012	      1.43425039	      0.00428573
     21.66900000	     -3.53351534	    258.24484983	     36.08575262	     -2.27372914	      0.01008880	      2.25253798	      0.00496686	     -2.53318901	      0.00633454	      1.32492900	    239.81530157	    -31.14075392	     -2.27360792	      0.01042322	      2.71934087	     -0.00175661	      1.42330310	      0.00425301
     21.67000000	     -3.36508611	    257.72962198	     36.01801480	     -2.27427345	      0.01008798	      2.25263530	      0.00495777	     -2.52855157	      0.00632294	      1.38260593	    239.83598917	    -31.16966369	     -2.27401780	      0.01042290	      2.71927816	     -0.00174285	      1.41215340	      0.00421970
     21.67100000	     -3.20243715	    257.20331080	     35.94682708	     -2.27481909	      0.01008715	      2.25273155	      0.00494805	     -2.52359754	      0.00631055	      1.43424777	    239.86565949	    -31.20281563	     -2.27442992	      0.01042258	      2.71921515	     -0.00172886	      1.40081869	      0.00418583
     21.67200000	     -3.04565468	    256.66637257	     35.87218091	     -2.27536525	      0.01008631	      2.25282662	      0.00493774	     -2.51833652	      0.00629740	      1.48045570	    239.90372362	    -31.23982744	     -2.27484386	      0.01042226	      2.71915191	     -0.00171466	      1.38931762	      0.00415146
